<svg preserveAspectRatio="none" overflow="visible" style="display: block;" width="16" height="16" viewBox="0 0 16 16" fill="none" xmlns="http://www.w3.org/2000/svg">
<g id="SVG">
<path id="Vector" d="M6.44733 2.75733C6.48407 2.37089 6.66356 2.01203 6.95073 1.75085C7.23791 1.48968 7.61215 1.34495 8.00033 1.34495C8.38852 1.34495 8.76275 1.48968 9.04993 1.75085C9.33711 2.01203 9.5166 2.37089 9.55333 2.75733C9.57541 3.00697 9.65731 3.24761 9.79209 3.45889C9.92687 3.67017 10.1106 3.84587 10.3276 3.97112C10.5447 4.09636 10.7888 4.16747 11.0391 4.17841C11.2895 4.18936 11.5388 4.13982 11.766 4.034C12.1187 3.87385 12.5184 3.85068 12.8873 3.96899C13.2562 4.0873 13.5679 4.33863 13.7617 4.67407C13.9555 5.00951 14.0175 5.40505 13.9358 5.78371C13.854 6.16238 13.6343 6.49708 13.3193 6.72267C13.1143 6.86656 12.9468 7.05774 12.8313 7.28002C12.7157 7.50229 12.6554 7.74914 12.6554 7.99967C12.6554 8.2502 12.7157 8.49704 12.8313 8.71932C12.9468 8.94159 13.1143 9.13277 13.3193 9.27667C13.6343 9.50226 13.854 9.83695 13.9358 10.2156C14.0175 10.5943 13.9555 10.9898 13.7617 11.3253C13.5679 11.6607 13.2562 11.912 12.8873 12.0303C12.5184 12.1487 12.1187 12.1255 11.766 11.9653C11.5388 11.8595 11.2895 11.81 11.0391 11.8209C10.7888 11.8319 10.5447 11.903 10.3276 12.0282C10.1106 12.1535 9.92687 12.3292 9.79209 12.5404C9.65731 12.7517 9.57541 12.9924 9.55333 13.242C9.5166 13.6284 9.33711 13.9873 9.04993 14.2485C8.76275 14.5097 8.38852 14.6544 8.00033 14.6544C7.61215 14.6544 7.23791 14.5097 6.95073 14.2485C6.66356 13.9873 6.48407 13.6284 6.44733 13.242C6.4253 12.9923 6.3434 12.7515 6.20858 12.5402C6.07376 12.3288 5.88998 12.1531 5.67282 12.0278C5.45566 11.9026 5.21151 11.8315 4.96105 11.8206C4.71059 11.8097 4.4612 11.8594 4.234 11.9653C3.88126 12.1255 3.48155 12.1487 3.11267 12.0303C2.74378 11.912 2.43211 11.6607 2.23832 11.3253C2.04453 10.9898 1.98248 10.5943 2.06424 10.2156C2.146 9.83695 2.36573 9.50226 2.68067 9.27667C2.88575 9.13277 3.05315 8.94159 3.16873 8.71932C3.2843 8.49704 3.34464 8.2502 3.34464 7.99967C3.34464 7.74914 3.2843 7.50229 3.16873 7.28002C3.05315 7.05774 2.88575 6.86656 2.68067 6.72267C2.36618 6.49696 2.14683 6.1624 2.06527 5.78399C1.9837 5.40558 2.04574 5.01036 2.23932 4.67514C2.43291 4.33992 2.74421 4.08865 3.11273 3.97016C3.48125 3.85167 3.88066 3.87442 4.23333 4.034C4.46051 4.13982 4.70983 4.18936 4.9602 4.17841C5.21057 4.16747 5.45462 4.09636 5.67169 3.97112C5.88876 3.84587 6.07246 3.67017 6.20724 3.45889C6.34203 3.24761 6.42392 3.00697 6.446 2.75733" stroke="#6B6B6B" stroke-width="1.33333" stroke-linecap="round" stroke-linejoin="round"/>
<path id="Vector_2" d="M8 10C9.10457 10 10 9.10457 10 8C10 6.89543 9.10457 6 8 6C6.89543 6 6 6.89543 6 8C6 9.10457 6.89543 10 8 10Z" stroke="#6B6B6B" stroke-width="1.33333" stroke-linecap="round" stroke-linejoin="round"/>
</g>
</svg>
